<svg xmlns:inkscape="http://www.inkscape.org/namespaces/inkscape" xmlns:sodipodi="http://sodipodi.sourceforge.net/DTD/sodipodi-0.dtd" xmlns="http://www.w3.org/2000/svg" xmlns:inkflow="urn:inkflow" inkflow:parent="local:main.svg" viewBox="0 0 1920 1080" width="1920" height="1080" version="1.1" id="svg4">
  <g inkscape:groupmode="layer" inkscape:label="__inkflow:layout:main__" sodipodi:insensitive="true" inkflow:layout-src="local:main.svg" inkflow:layout-hash="d78aa2ad"><defs/><!-- Catppuccin Mocha background -->
  <rect width="1920" height="1080" class="inkflow-fill-bg"/>
  <!-- Footer bar -->
  <rect y="1040" width="1920" height="40" class="inkflow-fill-surface"/>
  <!-- Accent line above footer -->
  <rect y="1036" width="1920" height="4" class="inkflow-fill-accent inkflow-fill-purple"/>
  <!-- Slide number -->
  <text id="zone-slide-number" x="1840" y="1066" font-family="sans-serif" font-size="20" text-anchor="end" class="inkflow-fill-grey">99</text>
  <text x="1852" y="1066" font-family="sans-serif" font-size="20" class="inkflow-fill-grey">/</text>
  <text id="zone-slide-total" x="1864" y="1066" font-family="sans-serif" font-size="20" text-anchor="start" class="inkflow-fill-grey">99</text>
</g><defs id="defs4"><style id="inkflow-preview">.inkflow-fill-bg { fill: #1e1e2e; }
.inkflow-stroke-bg { stroke: #1e1e2e; }
.inkflow-fill-surface { fill: #313244; }
.inkflow-stroke-surface { stroke: #313244; }
.inkflow-fill-border { fill: #585b70; }
.inkflow-stroke-border { stroke: #585b70; }
.inkflow-fill-text { fill: #cdd6f4; }
.inkflow-stroke-text { stroke: #cdd6f4; }
.inkflow-fill-text-muted { fill: #a6adc8; }
.inkflow-stroke-text-muted { stroke: #a6adc8; }
.inkflow-fill-accent { fill: #cba6f7; }
.inkflow-stroke-accent { stroke: #cba6f7; }
.inkflow-fill-accent-fg { fill: #11111b; }
.inkflow-stroke-accent-fg { stroke: #11111b; }
.inkflow-fill-code-bg { fill: #181825; }
.inkflow-stroke-code-bg { stroke: #181825; }
.inkflow-fill-code-text { fill: #cdd6f4; }
.inkflow-stroke-code-text { stroke: #cdd6f4; }
.inkflow-fill-red { fill: #f38ba8; }
.inkflow-stroke-red { stroke: #f38ba8; }
.inkflow-fill-orange { fill: #fab387; }
.inkflow-stroke-orange { stroke: #fab387; }
.inkflow-fill-yellow { fill: #f9e2af; }
.inkflow-stroke-yellow { stroke: #f9e2af; }
.inkflow-fill-green { fill: #a6e3a1; }
.inkflow-stroke-green { stroke: #a6e3a1; }
.inkflow-fill-teal { fill: #94e2d5; }
.inkflow-stroke-teal { stroke: #94e2d5; }
.inkflow-fill-blue { fill: #89b4fa; }
.inkflow-stroke-blue { stroke: #89b4fa; }
.inkflow-fill-purple { fill: #cba6f7; }
.inkflow-stroke-purple { stroke: #cba6f7; }
.inkflow-fill-pink { fill: #f5c2e7; }
.inkflow-stroke-pink { stroke: #f5c2e7; }
.inkflow-fill-grey { fill: #6c7086; }
.inkflow-stroke-grey { stroke: #6c7086; }</style></defs>
  <text x="960" y="110" text-anchor="middle" font-family="sans-serif" font-size="56" font-weight="bold" id="text1" class="inkflow-fill-text inkflow-fill-code-text">Non-rectangular Clip Zones</text>
  <!-- portrait ellipse -->
  <ellipse id="zone-left" cx="320" cy="570" rx="210" ry="300"/>
  <!-- pointy-top regular hexagon, r=280 -->
  <polygon id="zone-center" points="960,290 1202,430 1202,710 960,850 718,710 718,430"/>
  <!-- irregular convex quad (as a path, the way Inkscape emits polygons) -->
  <text x="320" y="940" text-anchor="middle" font-family="sans-serif" font-size="30" id="text2" class="inkflow-fill-grey">&lt;ellipse&gt;</text>
  <text x="960" y="940" text-anchor="middle" font-family="sans-serif" font-size="30" id="text4" class="inkflow-fill-grey">&lt;polygon&gt;</text>
  <text x="1600" y="940" text-anchor="middle" font-family="sans-serif" font-size="30" id="text5" class="inkflow-fill-grey">&lt;path&gt;</text>
  <path class="inkflow-fill-text" style="stroke-width:7.30362;stroke-linecap:round" d="m 1725.3119,366.56018 c 0,0 -125.9605,-112.5298 -197.6077,-91.98088 -71.6473,20.54892 -87.8257,45.99043 -107.4709,68.4964 -19.6452,22.50596 24.2676,82.19567 56.6244,109.59423 32.3568,27.39856 42.7572,53.8186 17.334,91.00237 -25.4232,37.18376 -72.8028,88.06679 -65.8692,142.86391 6.9336,54.79712 5.778,90.02384 54.3132,123.29352 48.5353,33.26968 85.5145,40.11932 147.9169,44.03341 62.4025,3.91407 116.7157,12.72076 144.4501,-4.89261 27.7344,-17.61336 67.0248,-55.77564 68.1804,-84.15272 1.1556,-28.37708 -8.8122,-104.86458 -30.0456,-160.47728 -22.5757,-59.12841 -41.6016,-39.1408 -63.558,-98.83051 -23.6724,-64.35484 -24.2676,-138.94984 -24.2676,-138.94984 z" id="zone-right"/>
</svg>
